HIERARCHY
ROOT Hips
{
	OFFSET 2.702431 104.614021 -1.520780
	CHANNELS 6 Xposition Yposition Zposition Xrotation Yrotation Zrotation
	JOINT Chest
	{
		OFFSET -0.027536 13.589447 1.216683
		CHANNELS 3 Xrotation Yrotation Zrotation
		JOINT Chest2
		{
			OFFSET -5.131717 20.766396 1.220118
			CHANNELS 3 Xrotation Yrotation Zrotation
			JOINT Chest3
			{
				OFFSET -4.767098 14.049377 -1.646121
				CHANNELS 3 Xrotation Yrotation Zrotation
				JOINT Neck
				{
					OFFSET -4.667514 16.634430 -0.355150
					CHANNELS 3 Xrotation Yrotation Zrotation
					JOINT Head
					{
						OFFSET -4.259856 9.544479 0.764415
						CHANNELS 3 Xrotation Yrotation Zrotation
						End Site
						{
							OFFSET -4.251894 9.553513 0.692332
						}
					}
				}
				JOINT LeftCollar
				{
					OFFSET 0.765890 14.032349 2.076321
					CHANNELS 3 Xrotation Yrotation Zrotation
					JOINT LeftUpArm
					{
						OFFSET 9.437137 11.997192 -8.689476
						CHANNELS 3 Xrotation Yrotation Zrotation
						JOINT LeftLowArm
						{
							OFFSET -3.140579 32.288681 9.343722
							CHANNELS 3 Xrotation Yrotation Zrotation
							JOINT LeftHand
							{
								OFFSET -14.717135 25.841766 4.068852
								CHANNELS 3 Xrotation Yrotation Zrotation
								End Site
								{
									OFFSET -3.216498 5.647888 0.889260
								}
							}
						}
					}
				}
				JOINT RightCollar
				{
					OFFSET -7.283057 11.795914 3.101958
					CHANNELS 3 Xrotation Yrotation Zrotation
					JOINT RightUpArm
					{
						OFFSET -16.844482 1.243652 -4.817978
						CHANNELS 3 Xrotation Yrotation Zrotation
						JOINT RightLowArm
						{
							OFFSET -19.419109 25.460190 10.696282
							CHANNELS 3 Xrotation Yrotation Zrotation
							JOINT RightHand
							{
								OFFSET -16.997505 23.209793 8.564110
								CHANNELS 3 Xrotation Yrotation Zrotation
								End Site
								{
									OFFSET -3.714966 5.072739 1.871761
								}
							}
						}
					}
				}
			}
		}
	}
	JOINT LeftUpLeg
	{
		OFFSET 10.018147 0.040939 -0.232845
		CHANNELS 3 Xrotation Yrotation Zrotation
		JOINT LeftLowLeg
		{
			OFFSET -0.039825 -46.803188 7.310923
			CHANNELS 3 Xrotation Yrotation Zrotation
			JOINT LeftFoot
			{
				OFFSET -7.024808 -39.314255 -20.139763
				CHANNELS 3 Xrotation Yrotation Zrotation
				JOINT LeftToe
				{
					OFFSET 0.571856 -14.006048 19.054226
					CHANNELS 3 Xrotation Yrotation Zrotation
					End Site
					{
						OFFSET 3.992392 0.979416 23.295074
					}
				}
			}
		}
	}
	JOINT RightUpLeg
	{
		OFFSET -10.018149 -0.041138 0.232827
		CHANNELS 3 Xrotation Yrotation Zrotation
		JOINT RightLowLeg
		{
			OFFSET -29.774679 -36.647636 3.798800
			CHANNELS 3 Xrotation Yrotation Zrotation
			JOINT RightFoot
			{
				OFFSET -28.697567 -32.392471 -11.302959
				CHANNELS 3 Xrotation Yrotation Zrotation
				JOINT RightToe
				{
					OFFSET -20.170937 -9.827997 7.490022
					CHANNELS 3 Xrotation Yrotation Zrotation
					End Site
					{
						OFFSET -11.828529 -4.491106 19.986792
					}
				}
			}
		}
	}
}
MOTION
Frames: 13
Frame Time: 0.033333
-1.559163 106.034157 -1.111724 0.251213 -1.878199 -0.479147 3.737751 0.284453 -11.144573 3.010615 5.527501 -5.376216 1.543197 -6.848311 0.395039 -7.863071 8.661166 -5.600670 -0.000000 0.000001 -0.000000 3.094696 0.329433 -62.417479 15.152790 7.099797 -94.155544 32.186338 27.075268 -25.527982 -0.000003 0.000001 0.000005 12.796995 5.934089 49.077508 30.317198 21.857039 81.688065 28.604682 -0.041145 -14.546008 0.000001 0.000002 0.000001 9.872232 0.686790 5.490913 -20.322591 7.254616 7.464631 14.771517 -12.365487 -3.500892 -0.000000 0.000000 -0.000002 1.111275 1.096423 38.476863 -1.719708 -6.012269 0.649940 -21.313858 16.284762 19.025456 -0.000001 0.000003 0.000005 
-1.562102 106.035904 -1.110065 -0.014062 -1.947614 -0.443123 4.217112 0.270521 -11.233914 2.792229 5.504775 -5.389044 1.473647 -7.007585 0.451586 -7.661432 8.726866 -5.605773 -0.000001 0.000000 0.000001 3.041920 0.530949 -62.471342 15.288574 7.044594 -94.109741 31.915930 27.208231 -25.536124 -0.000001 -0.000001 0.000003 12.825599 5.879823 49.227516 30.363042 22.199426 81.204228 28.607976 -0.121660 -14.650517 -0.000002 0.000000 0.000003 10.029771 0.682396 5.528843 -20.089608 7.257693 7.331338 14.890625 -12.281197 -3.470785 0.000000 -0.000001 -0.000000 1.262624 1.114051 38.490524 -1.710645 -6.049880 0.590166 -21.408571 16.325595 19.162050 -0.000000 0.000005 0.000003 
-1.564342 106.041878 -1.115475 0.422412 -1.865651 -0.466577 3.771140 0.279013 -11.210404 2.405306 5.400503 -5.332320 1.900571 -7.113917 0.500218 -7.604707 8.824475 -5.700111 -0.000000 0.000001 -0.000000 2.963598 0.537060 -62.469306 15.236035 6.992306 -94.080610 31.780730 27.066383 -25.747173 -0.000001 0.000004 0.000002 12.683062 6.492889 49.114579 30.284977 22.167382 81.141555 28.490987 -0.096426 -14.780277 0.000003 -0.000001 0.000007 9.397884 0.654677 5.622236 -19.749685 7.298224 7.273314 14.783799 -12.335985 -3.477246 0.000000 0.000000 -0.000002 0.711993 1.107008 38.514559 -1.679087 -6.146807 0.622807 -21.676729 16.405092 19.376704 -0.000001 0.000006 -0.000004 
-1.570718 106.043846 -1.122083 0.452750 -1.786404 -0.555427 3.598566 0.273128 -11.114575 2.141666 5.323548 -5.234375 2.157328 -6.956038 0.419330 -8.010625 8.649513 -5.542575 -0.000001 0.000001 -0.000002 3.216752 0.117711 -62.395479 15.206622 7.217019 -94.258284 31.892827 27.086734 -25.732401 0.000002 -0.000003 0.000002 12.756750 6.287147 49.197012 30.386975 22.182320 81.176607 28.288381 -0.164271 -14.712183 -0.000000 0.000003 0.000006 9.665251 0.659400 5.727519 -20.150735 7.279950 7.333335 15.109587 -12.462857 -3.540281 -0.000001 0.000000 -0.000001 1.428514 1.108999 38.510854 -2.517956 -5.605390 0.814622 -21.718267 16.404446 19.273284 -0.000002 0.000005 0.000006 
-1.576911 106.042519 -1.121145 0.470453 -1.916321 -0.592789 3.402754 0.279758 -11.074420 2.126554 5.345259 -5.270149 2.232866 -6.972307 0.483457 -7.822108 8.773204 -5.568240 -0.000001 0.000000 0.000001 3.062856 0.393031 -62.367960 14.978839 7.489866 -94.467547 32.193284 26.846294 -26.427607 -0.000001 0.000001 0.000001 12.758229 5.904440 49.306975 30.310805 22.139305 81.089877 28.346871 0.109636 -14.210528 0.000001 0.000003 0.000003 9.771900 0.668673 5.744657 -20.209642 7.203618 7.349079 14.987709 -12.178702 -3.422932 -0.000001 -0.000000 -0.000000 1.783070 1.086398 38.582581 -2.964438 -5.287457 0.788153 -21.506587 16.320064 19.083694 0.000001 0.000005 0.000003 
-1.586156 106.046700 -1.126449 0.339826 -1.891848 -0.581449 3.576775 0.288985 -11.079177 1.605236 5.251320 -5.281348 2.574469 -6.779285 0.525403 -7.302751 8.779585 -5.595463 -0.000001 0.000000 0.000001 3.119260 0.043029 -62.289058 14.801184 7.546966 -94.563996 32.065129 26.648041 -26.698388 0.000001 -0.000002 0.000001 12.641328 5.935358 49.167677 30.200347 21.765086 81.601035 28.273254 0.278821 -14.102952 0.000002 -0.000003 0.000005 9.910336 0.696627 5.780850 -20.315175 7.261768 7.311477 14.958785 -12.419792 -3.501696 -0.000001 -0.000000 -0.000002 1.713588 1.075871 38.590022 -2.816208 -5.424570 0.811657 -21.440881 16.316497 18.980088 -0.000001 0.000004 0.000004 
-1.598031 106.049110 -1.125050 0.004779 -1.971446 -0.534608 3.820614 0.306451 -11.196143 2.314677 5.409503 -5.361813 1.947971 -6.859508 0.596667 -7.144376 8.787936 -5.640511 0.000000 0.000001 -0.000002 3.041579 0.068360 -62.128514 14.713160 7.317355 -94.674454 32.418892 26.435836 -26.759716 -0.000001 -0.000000 0.000003 12.538993 6.211171 48.994470 29.968326 21.743970 81.806562 28.363942 0.485578 -14.282223 0.000002 0.000000 0.000003 10.215479 0.709869 5.723237 -20.120827 7.228744 7.269100 14.857381 -12.106229 -3.401515 -0.000000 -0.000000 -0.000001 1.898692 1.054232 38.630361 -2.523068 -5.552004 0.690662 -21.588341 16.371786 18.997159 -0.000001 0.000003 -0.000001 
-1.610263 106.046242 -1.123251 0.424203 -1.716789 -0.552762 3.571413 0.295786 -11.081213 2.008507 5.313190 -5.283512 2.325875 -6.851775 0.500211 -7.463888 8.730656 -5.631829 -0.000001 0.000001 0.000001 3.010009 0.259001 -62.099349 14.779216 7.309521 -94.810498 32.434615 26.553887 -26.506451 -0.000001 0.000001 -0.000000 12.605754 5.807220 49.013072 29.994496 22.165496 81.456180 28.351915 0.419268 -14.111413 0.000001 -0.000002 0.000002 9.918721 0.694987 5.758710 -20.114352 7.245941 7.329648 14.979967 -12.326277 -3.428386 0.000000 0.000000 -0.000001 1.836223 1.055658 38.683794 -2.909199 -5.456607 0.694309 -21.438140 16.440552 18.569845 -0.000000 0.000001 0.000003 
-1.618889 106.039856 -1.123132 0.317766 -1.773813 -0.480060 3.959791 0.296478 -11.143395 0.805597 5.137528 -5.347160 3.153202 -6.568006 0.625031 -7.178313 8.847551 -5.736088 -0.000001 0.000001 -0.000001 2.820746 0.615930 -62.161415 14.617197 7.516060 -94.909993 32.708034 26.511956 -26.596854 -0.000000 -0.000002 0.000001 12.549991 6.051513 48.848618 29.906731 22.300412 81.468215 28.118880 0.326221 -13.950831 -0.000000 0.000003 0.000006 10.082254 0.710476 5.675994 -20.194916 7.300787 7.333059 14.905923 -12.257771 -3.399392 -0.000000 -0.000001 -0.000000 1.358800 1.056800 38.639220 -2.349440 -5.844073 0.647694 -21.660147 16.534302 18.567866 0.000004 0.000005 0.000003 
-1.630107 106.037529 -1.122185 0.270400 -1.728430 -0.464503 3.923953 0.284761 -11.072513 1.373377 5.280352 -5.403075 2.580132 -6.592786 0.544593 -7.194791 8.847966 -5.675332 -0.000000 0.000000 0.000003 3.020428 0.285993 -62.244689 14.856961 7.210950 -94.756519 32.352933 26.510278 -26.289845 0.000000 -0.000002 -0.000001 12.617925 6.011057 48.876625 29.996319 22.679546 81.192924 28.014586 0.231477 -14.209200 0.000002 0.000003 0.000003 9.809119 0.645877 5.672938 -20.120185 7.263698 7.339355 14.988674 -12.029456 -3.302735 -0.000001 0.000001 -0.000001 1.752225 1.084859 38.579197 -2.802021 -5.547737 0.737536 -21.644202 16.506452 18.250486 -0.000000 0.000007 0.000001 
-1.639913 106.040916 -1.132048 0.131292 -1.751615 -0.361204 4.012590 0.281288 -11.062279 1.164830 5.291602 -5.475663 2.678577 -6.512312 0.539961 -7.282600 8.900199 -5.700590 -0.000001 -0.000001 0.000001 3.084460 0.139177 -62.424985 14.896962 7.253173 -94.576605 32.577557 26.593780 -26.104329 -0.000001 0.000001 -0.000002 12.623011 6.127773 48.863887 30.101132 22.470142 81.240435 28.108134 0.225104 -14.293650 0.000006 0.000002 0.000008 10.049632 0.646887 5.497575 -20.081429 7.186051 7.423500 14.584978 -11.993776 -3.271615 -0.000000 -0.000001 -0.000002 1.574426 1.074532 38.384649 -2.545302 -5.712374 0.871909 -21.988097 16.630348 18.407256 0.000001 0.000003 0.000005 
-1.651183 106.039619 -1.135578 0.072674 -1.797391 -0.312578 3.944337 0.282394 -11.118912 1.843853 5.410614 -5.506749 2.278113 -6.830695 0.552363 -7.612729 8.927998 -5.774793 -0.000000 0.000000 -0.000001 3.022226 0.363665 -62.427943 14.956834 7.283791 -94.593346 32.569101 26.743918 -26.064360 0.000001 0.000002 0.000002 12.612295 6.496605 48.843687 30.182066 22.336909 81.206557 28.158954 0.106730 -14.539746 -0.000001 0.000001 0.000005 10.225842 0.661335 5.422862 -20.096742 7.162462 7.430816 14.666382 -11.922472 -3.282107 -0.000000 -0.000000 -0.000002 1.545085 1.083086 38.311166 -2.467229 -5.713895 0.900991 -21.809854 16.548230 18.342552 0.000000 0.000004 0.000004 
-1.666613 106.039154 -1.139903 0.593893 -1.805042 -0.412066 4.152819 0.280810 -11.038093 0.185776 5.136002 -5.521203 3.448150 -6.525501 0.676541 -7.815430 8.920815 -5.785061 -0.000000 0.000000 0.000003 2.838322 0.463946 -62.431344 14.864758 7.196175 -94.554796 32.727459 26.523972 -26.128820 -0.000001 0.000001 0.000001 12.476523 6.517368 48.861333 30.024289 22.482901 81.085096 28.001349 0.289087 -14.504800 0.000002 0.000003 0.000006 9.312458 0.578234 5.591131 -19.448863 7.051559 7.342856 14.423336 -11.734784 -3.184053 -0.000001 -0.000000 -0.000000 1.482321 1.106635 38.465013 -2.836837 -5.477403 0.882620 -21.791626 16.524616 18.683233 -0.000003 0.000007 0.000001 
